<svg xmlns:xlink="http://www.w3.org/1999/xlink" fill="none" xmlns="http://www.w3.org/2000/svg">
    <defs>
        <symbol id="arrow" width="7" height="10" viewBox="0 0 7 10">
            <path
                d="M0.969834 0.227036C0.829231 0.367682 0.750244 0.558413 0.750244 0.757286C0.750244 0.956159 0.829231 1.14689 0.969834 1.28754L4.68233 5.00004L0.969834 8.71254C0.833216 8.85399 0.757619 9.04344 0.759328 9.24009C0.761037 9.43674 0.839914 9.62484 0.97897 9.7639C1.11803 9.90296 1.30614 9.98183 1.50278 9.98354C1.69943 9.98525 1.88888 9.90965 2.03033 9.77304L6.27308 5.53029C6.41369 5.38964 6.49267 5.19891 6.49267 5.00004C6.49267 4.80116 6.41369 4.61043 6.27308 4.46979L2.03033 0.227036C1.88969 0.0864329 1.69896 0.00744629 1.50008 0.00744629C1.30121 0.00744629 1.11048 0.0864329 0.969834 0.227036Z"
            />
        </symbol>
        <symbol id="full-arrow" width="41" height="16" viewBox="0 0 41 16">

            <path
                d="M40.7071 8.70711C41.0976 8.31658 41.0976 7.68342 40.7071 7.29289L34.3431 0.928932C33.9526 0.538408 33.3195 0.538408 32.9289 0.928932C32.5384 1.31946 32.5384 1.95262 32.9289 2.34315L38.5858 8L32.9289 13.6569C32.5384 14.0474 32.5384 14.6805 32.9289 15.0711C33.3195 15.4616 33.9526 15.4616 34.3431 15.0711L40.7071 8.70711ZM0 9H40V7H0V9Z" />

        </symbol>
    </defs>
</svg>